<svg width="120" height="48" viewBox="0 0 120 48" fill="none" xmlns="http://www.w3.org/2000/svg">
  <defs>
    <filter id="glow-h" x="-50%" y="-50%" width="200%" height="200%">
      <feGaussianBlur in="SourceGraphic" stdDeviation="2"/>
      <feColorMatrix type="matrix" values="0 0 0 0 0.376 0 0 0 0 0.647 0 0 0 0 0.980 0 0 0 1 0"/>
      <feMerge>
        <feMergeNode/>
        <feMergeNode in="SourceGraphic"/>
      </feMerge>
    </filter>
  </defs>
  
  <!-- Shield background -->
  <path d="M 24 6 Q 32 10, 40 11 L 40 24 C 40 28, 38 31, 35 34 C 32 37, 28 38.5, 24 40 C 20 38.5, 16 37, 13 34 C 10 31, 8 28, 8 24 L 8 11 Q 16 10, 24 6 Z" 
        fill="#2B5A8C" 
        stroke="#60A5FA" 
        stroke-width="1.5" 
        filter="url(#glow-h)"/>
  
  <!-- Capsule with cross -->
  <g transform="translate(24, 24) rotate(45)">
    <path d="M -4.4 -6.615 A 4.4 4.4 0 0 1 4.4 -6.615 L 4.4 6.615 A 4.4 4.4 0 0 1 -4.4 6.615 Z" 
          fill="white" 
          stroke="#2B5A8C" 
          stroke-width="0.8"/>
    <rect x="-4.4" y="-0.5" width="8.8" height="1" fill="#2B5A8C"/>
    <g transform="translate(1, -3.8)">
      <path d="M -1.08 0 L 0 0 L 0 -3.2" 
            stroke="#2B5A8C" 
            stroke-width="1" 
            stroke-linecap="square" 
            stroke-linejoin="miter" 
            fill="none"/>
    </g>
  </g>
  
  <!-- Text "Rx Clarity" -->
  <text x="50" y="30" font-family="Arial, sans-serif" font-size="14" font-weight="700" fill="#60A5FA">
    Rx Clarity
  </text>
</svg>
